<svg version="1.2" xmlns="http://www.w3.org/2000/svg" viewBox="0 0 118 110" width="500" height="466">
	<title>New Project</title>
	<style>
		.s0 { fill: #2d93e1 } 
	</style>
	<g id="&lt;Group&gt;">
		<path id="&lt;Path&gt;" class="s0" d="m112.7 106.3c-30.3-16.9-51.9-2.1-96.4 0.6-35.5-58.7 78.3-113.5 78.3-51.8-6.1-15.3-30.3-14.8-23.7 6 4.7 14.8 36.4 20.9 41.8 45.2z"/>
		<path id="&lt;Path&gt;" class="s0" d="m44.2 5c10.1-4.3 18.6 6.4 6.5 11.3-23.4 9.5-40.8 28.1-43.6 57.3-7.5-44.8 26.2-63.9 37.1-68.6z"/>
		<path id="&lt;Path&gt;" class="s0" d="m109.7 21.9c8.3 5.1 4.9 16.8-4.9 10.5-18.9-12.1-41.4-15.2-64-2.3 28.7-28.4 59.9-13.7 68.9-8.2z"/>
	</g>
</svg>